<svg width="36" height="36" viewBox="0 0 36 36" fill="none" xmlns="http://www.w3.org/2000/svg">
<path d="M18 1.875C26.895 1.875 34.125 9.105 34.125 18C34.125 26.895 26.895 34.125 18 34.125C9.105 34.125 1.875 26.895 1.875 18C1.875 9.105 9.105 1.875 18 1.875ZM18 31.875C25.65 31.875 31.875 25.65 31.875 18C31.875 10.35 25.65 4.125 18 4.125C10.35 4.125 4.125 10.35 4.125 18C4.125 25.65 10.35 31.875 18 31.875Z" fill="#0E185F"/>
<path d="M12.7048 14.985C12.9898 14.985 13.2748 15.09 13.4998 15.315L17.9998 19.815L22.4998 15.315C22.9348 14.88 23.6548 14.88 24.0898 15.315C24.5248 15.75 24.5248 16.47 24.0898 16.905L18.7948 22.2C18.3598 22.635 17.6398 22.635 17.2048 22.2L11.9098 16.905C11.4748 16.47 11.4748 15.75 11.9098 15.315C12.1348 15.09 12.4198 14.985 12.7048 14.985Z" fill="#0E185F"/>
</svg>
