<svg width="43" height="52" viewBox="0 0 43 52" fill="none" xmlns="http://www.w3.org/2000/svg">
<path d="M30.3577 32.6293C37.8868 33.6278 39.393 46.453 30.3714 48.0503C18.1383 50.4938 18.1083 30.2533 30.3577 32.6293Z" fill="url(#paint0_linear_622_2846)"/>
<path d="M16.4722 15.0678C32.7435 19.4704 18.5173 46.08 6.88328 32.1612C0.585018 25.1841 7.10679 12.8938 16.4722 15.0678Z" fill="url(#paint1_linear_622_2846)"/>
<path d="M29.0296 8.03743C27.5143 9.44573 25.1442 9.35896 23.7359 7.84363C22.3276 6.3283 22.4144 3.95824 23.9297 2.54994C25.445 1.14165 27.8151 1.22842 29.2234 2.74375C30.6317 4.25907 30.5449 6.62914 29.0296 8.03743Z" fill="url(#paint2_linear_622_2846)"/>
<path d="M27.96 13.8211L31.7188 17.7656L35.4777 21.7102L37.019 16.4658L38.5104 11.2678L33.2601 12.5213L27.96 13.8211Z" stroke="url(#paint3_linear_622_2846)" stroke-width="1.37522" stroke-miterlimit="10"/>
<defs>
<linearGradient id="paint0_linear_622_2846" x1="23.3276" y1="34.5084" x2="34.2334" y2="46.2431" gradientUnits="userSpaceOnUse">
<stop stop-color="#1E5839"/>
<stop offset="1" stop-color="#95197A" stop-opacity="0.76"/>
</linearGradient>
<linearGradient id="paint1_linear_622_2846" x1="7.47661" y1="17.8406" x2="21.0444" y2="32.4396" gradientUnits="userSpaceOnUse">
<stop stop-color="#1E5839"/>
<stop offset="1" stop-color="#95197A" stop-opacity="0.76"/>
</linearGradient>
<linearGradient id="paint2_linear_622_2846" x1="23.9297" y1="2.54994" x2="29.0296" y2="8.03743" gradientUnits="userSpaceOnUse">
<stop stop-color="#1E5839"/>
<stop offset="1" stop-color="#95197A" stop-opacity="0.76"/>
</linearGradient>
<linearGradient id="paint3_linear_622_2846" x1="31.4271" y1="10.5989" x2="38.8451" y2="18.5807" gradientUnits="userSpaceOnUse">
<stop stop-color="#1E5839"/>
<stop offset="1" stop-color="#95197A" stop-opacity="0.76"/>
</linearGradient>
</defs>
</svg>
