<svg width="158" height="158" viewBox="0 0 158 158" fill="none" xmlns="http://www.w3.org/2000/svg">
<circle cx="2.5" cy="2.5" r="2.5" transform="matrix(1 -8.74228e-08 -8.74228e-08 -1 0 158)" fill="#0E185F"/>
<circle cx="2.5" cy="2.5" r="2.5" transform="matrix(1 -8.74228e-08 -8.74228e-08 -1 0 124)" fill="#0E185F"/>
<circle cx="2.5" cy="2.5" r="2.5" transform="matrix(1 -8.74228e-08 -8.74228e-08 -1 0 90)" fill="#0E185F"/>
<circle cx="2.5" cy="2.5" r="2.5" transform="matrix(1 -8.74228e-08 -8.74228e-08 -1 0 56)" fill="#0E185F"/>
<circle cx="2.5" cy="2.5" r="2.5" transform="matrix(1 -8.74228e-08 -8.74228e-08 -1 0 22)" fill="#0E185F"/>
<circle cx="2.5" cy="2.5" r="2.5" transform="matrix(1 -8.74228e-08 -8.74228e-08 -1 0 141)" fill="#0E185F"/>
<circle cx="2.5" cy="2.5" r="2.5" transform="matrix(1 -8.74228e-08 -8.74228e-08 -1 0 107)" fill="#0E185F"/>
<circle cx="2.5" cy="2.5" r="2.5" transform="matrix(1 -8.74228e-08 -8.74228e-08 -1 0 73)" fill="#0E185F"/>
<circle cx="2.5" cy="2.5" r="2.5" transform="matrix(1 -8.74228e-08 -8.74228e-08 -1 0 39)" fill="#0E185F"/>
<circle cx="2.5" cy="2.5" r="2.5" transform="matrix(1 -8.74228e-08 -8.74228e-08 -1 0 5)" fill="#0E185F"/>
<circle cx="2.5" cy="2.5" r="2.5" transform="matrix(1 -8.74228e-08 -8.74228e-08 -1 18 158)" fill="#0E185F"/>
<circle cx="2.5" cy="2.5" r="2.5" transform="matrix(1 -8.74228e-08 -8.74228e-08 -1 18 124)" fill="#0E185F"/>
<circle cx="2.5" cy="2.5" r="2.5" transform="matrix(1 -8.74228e-08 -8.74228e-08 -1 18 90)" fill="#0E185F"/>
<circle cx="2.5" cy="2.5" r="2.5" transform="matrix(1 -8.74228e-08 -8.74228e-08 -1 18 56)" fill="#0E185F"/>
<circle cx="2.5" cy="2.5" r="2.5" transform="matrix(1 -8.74228e-08 -8.74228e-08 -1 18 22)" fill="#0E185F"/>
<circle cx="2.5" cy="2.5" r="2.5" transform="matrix(1 -8.74228e-08 -8.74228e-08 -1 18 141)" fill="#0E185F"/>
<circle cx="2.5" cy="2.5" r="2.5" transform="matrix(1 -8.74228e-08 -8.74228e-08 -1 18 107)" fill="#0E185F"/>
<circle cx="2.5" cy="2.5" r="2.5" transform="matrix(1 -8.74228e-08 -8.74228e-08 -1 18 73)" fill="#0E185F"/>
<circle cx="2.5" cy="2.5" r="2.5" transform="matrix(1 -8.74228e-08 -8.74228e-08 -1 18 39)" fill="#0E185F"/>
<circle cx="2.5" cy="2.5" r="2.5" transform="matrix(1 -8.74228e-08 -8.74228e-08 -1 18 5)" fill="#0E185F"/>
<circle cx="2.5" cy="2.5" r="2.5" transform="matrix(1 -8.74228e-08 -8.74228e-08 -1 35 158)" fill="#0E185F"/>
<circle cx="2.5" cy="2.5" r="2.5" transform="matrix(1 -8.74228e-08 -8.74228e-08 -1 35 141)" fill="#0E185F"/>
<circle cx="2.5" cy="2.5" r="2.5" transform="matrix(1 -8.74228e-08 -8.74228e-08 -1 51 158)" fill="#0E185F"/>
<circle cx="2.5" cy="2.5" r="2.5" transform="matrix(1 -8.74228e-08 -8.74228e-08 -1 51 141)" fill="#0E185F"/>
<circle cx="2.5" cy="2.5" r="2.5" transform="matrix(1 -8.74228e-08 -8.74228e-08 -1 68 158)" fill="#0E185F"/>
<circle cx="2.5" cy="2.5" r="2.5" transform="matrix(1 -8.74228e-08 -8.74228e-08 -1 68 141)" fill="#0E185F"/>
<circle cx="2.5" cy="2.5" r="2.5" transform="matrix(1 -8.74228e-08 -8.74228e-08 -1 86 158)" fill="#0E185F"/>
<circle cx="2.5" cy="2.5" r="2.5" transform="matrix(1 -8.74228e-08 -8.74228e-08 -1 86 141)" fill="#0E185F"/>
<circle cx="2.5" cy="2.5" r="2.5" transform="matrix(1 -8.74228e-08 -8.74228e-08 -1 102 158)" fill="#0E185F"/>
<circle cx="2.5" cy="2.5" r="2.5" transform="matrix(1 -8.74228e-08 -8.74228e-08 -1 102 141)" fill="#0E185F"/>
<circle cx="2.5" cy="2.5" r="2.5" transform="matrix(1 -8.74228e-08 -8.74228e-08 -1 119 158)" fill="#0E185F"/>
<circle cx="2.5" cy="2.5" r="2.5" transform="matrix(1 -8.74228e-08 -8.74228e-08 -1 119 141)" fill="#0E185F"/>
<circle cx="2.5" cy="2.5" r="2.5" transform="matrix(1 -8.74228e-08 -8.74228e-08 -1 136 158)" fill="#0E185F"/>
<circle cx="2.5" cy="2.5" r="2.5" transform="matrix(1 -8.74228e-08 -8.74228e-08 -1 136 141)" fill="#0E185F"/>
<circle cx="2.5" cy="2.5" r="2.5" transform="matrix(1 -8.74228e-08 -8.74228e-08 -1 153 158)" fill="#0E185F"/>
<circle cx="2.5" cy="2.5" r="2.5" transform="matrix(1 -8.74228e-08 -8.74228e-08 -1 153 141)" fill="#0E185F"/>
</svg>
