<svg width="57" height="57" viewBox="0 0 57 57" fill="none" xmlns="http://www.w3.org/2000/svg">
<path d="M10.3542 14.007C8.52049 13.2866 6.52587 13.4571 5.31476 15.1667C4.27619 16.6068 4.19036 19.139 5.72252 20.3534C9.95564 23.5595 14.3095 26.0974 17.762 30.2949C21.1677 34.36 23.6103 39.1534 25.125 44.1862C26.2632 48.0717 31.9592 46.4114 31.1309 42.4756C29.8658 36.5503 27.4518 30.9128 23.8537 26.0522C20.4832 21.4981 15.7681 16.2587 10.3542 14.007Z" fill="url(#paint0_linear_622_2842)"/>
<path d="M43.5097 34.9632C39.7714 36.8533 34.8253 40.6307 34.0626 44.9513C33.7005 46.9559 35.849 47.8924 37.2928 46.7555C38.7366 45.6186 39.6395 44.0479 41.0381 42.8675C42.5238 41.5966 44.2808 40.5871 46.0879 39.8873C48.91 38.8579 53.5404 39.5704 55.5806 37.0905C56.1016 36.4592 56.3077 35.6118 55.8054 34.8665C53.4197 30.7379 46.7656 33.3929 43.5097 34.9632Z" fill="url(#paint1_linear_622_2842)"/>
<path d="M36.8399 24.8772C36.0377 24.7146 35.0647 24.9104 34.3177 25.3239C33.5255 25.6939 32.8722 26.3721 32.5338 27.2663L32.4902 27.3115C31.6159 28.0382 31.4649 29.4617 31.7059 30.4783C31.9971 31.8047 32.9515 32.9855 34.1622 33.6288C35.8217 34.5301 38.2132 34.219 39.4745 32.8191C41.8213 30.1115 40.3148 25.5226 36.8399 24.8772Z" fill="url(#paint2_linear_622_2842)"/>
<defs>
<linearGradient id="paint0_linear_622_2842" x1="22.4796" y1="18.888" x2="13.644" y2="40.8701" gradientUnits="userSpaceOnUse">
<stop stop-color="#F9DABE"/>
<stop offset="1" stop-color="#E9B7D4"/>
</linearGradient>
<linearGradient id="paint1_linear_622_2842" x1="48.8251" y1="31.0516" x2="41.3646" y2="49.6125" gradientUnits="userSpaceOnUse">
<stop stop-color="#F9DABE"/>
<stop offset="1" stop-color="#E9B7D4"/>
</linearGradient>
<linearGradient id="paint2_linear_622_2842" x1="37.9138" y1="25.2108" x2="34.4929" y2="33.7216" gradientUnits="userSpaceOnUse">
<stop stop-color="#F9DABE"/>
<stop offset="1" stop-color="#E9B7D4"/>
</linearGradient>
</defs>
</svg>
