<svg width="32" height="32" viewBox="0 0 32 32" fill="none" xmlns="http://www.w3.org/2000/svg">
<circle cx="16" cy="16" r="16" fill="#00237B" fill-opacity="0.6"/>
<g clip-path="url(#clip0_104_1236)">
<path d="M23.0189 23.0522H20.0593V18.4083C20.0593 17.3009 20.0396 15.8753 18.5201 15.8753C16.9787 15.8753 16.7428 17.0819 16.7428 18.3277V23.0519H13.7833V13.5021H16.6244V14.8072H16.6642C16.9485 14.32 17.3594 13.9193 17.853 13.6477C18.3467 13.376 18.9046 13.2436 19.4674 13.2645C22.4671 13.2645 23.0201 15.2415 23.0201 17.8134L23.0189 23.0522ZM10.4439 12.1967C10.1042 12.1967 9.77217 12.0959 9.4897 11.9068C9.20723 11.7178 8.98707 11.4491 8.85702 11.1346C8.72697 10.8202 8.69289 10.4742 8.7591 10.1404C8.82531 9.80656 8.98883 9.4999 9.22898 9.25919C9.46913 9.01848 9.77512 8.85452 10.1083 8.78806C10.4414 8.7216 10.7867 8.75562 11.1006 8.88581C11.4144 9.01601 11.6827 9.23652 11.8715 9.51949C12.0602 9.80245 12.161 10.1351 12.1611 10.4755C12.1611 10.7015 12.1167 10.9253 12.0305 11.1341C11.9442 11.3429 11.8177 11.5326 11.6583 11.6924C11.4988 11.8522 11.3095 11.979 11.1011 12.0656C10.8928 12.1521 10.6695 12.1966 10.4439 12.1967ZM11.9237 23.0522H8.96107V13.5021H11.9237V23.0522ZM24.4943 6.00112H7.47391C7.0876 5.99675 6.71534 6.14624 6.43896 6.41673C6.16259 6.68722 6.00471 7.05659 6 7.44367V24.5686C6.00455 24.9559 6.16234 25.3255 6.4387 25.5963C6.71506 25.8671 7.08741 26.0168 7.47391 26.0127H24.4943C24.8816 26.0176 25.255 25.8682 25.5324 25.5975C25.8099 25.3267 25.9687 24.9567 25.9741 24.5686V7.44243C25.9686 7.05459 25.8096 6.6848 25.5322 6.41431C25.2547 6.14383 24.8814 5.99477 24.4943 5.99988" fill="#0A66C2"/>
</g>
<defs>
<clipPath id="clip0_104_1236">
<rect width="20" height="20" fill="white" transform="translate(6 6)"/>
</clipPath>
</defs>
</svg>
