<svg width="32" height="32" viewBox="0 0 32 32" fill="none" xmlns="http://www.w3.org/2000/svg">
<circle cx="16" cy="16" r="16" fill="#00237B" fill-opacity="0.6"/>
<g clip-path="url(#clip0_104_1344)">
<path d="M23.0189 23.0524H20.0593V18.4084C20.0593 17.301 20.0396 15.8755 18.5201 15.8755C16.9787 15.8755 16.7428 17.082 16.7428 18.3278V23.0521H13.7833V13.5022H16.6244V14.8073H16.6642C16.9485 14.3202 17.3594 13.9194 17.853 13.6478C18.3467 13.3761 18.9046 13.2437 19.4674 13.2647C22.4671 13.2647 23.0201 15.2416 23.0201 17.8135L23.0189 23.0524ZM10.4439 12.1968C10.1042 12.1969 9.77217 12.096 9.4897 11.9069C9.20723 11.7179 8.98707 11.4492 8.85702 11.1348C8.72697 10.8203 8.69289 10.4743 8.7591 10.1405C8.82531 9.80668 8.98883 9.50002 9.22898 9.25931C9.46913 9.0186 9.77512 8.85465 10.1083 8.78819C10.4414 8.72173 10.7867 8.75574 11.1006 8.88594C11.4144 9.01613 11.6827 9.23665 11.8715 9.51961C12.0602 9.80257 12.161 10.1353 12.1611 10.4756C12.1611 10.7016 12.1167 10.9254 12.0305 11.1342C11.9442 11.343 11.8177 11.5327 11.6583 11.6925C11.4988 11.8524 11.3095 11.9792 11.1011 12.0657C10.8928 12.1522 10.6695 12.1968 10.4439 12.1968ZM11.9237 23.0524H8.96107V13.5022H11.9237V23.0524ZM24.4943 6.00124H7.47391C7.0876 5.99687 6.71534 6.14636 6.43896 6.41685C6.16259 6.68735 6.00471 7.05671 6 7.44379V24.5687C6.00455 24.956 6.16234 25.3256 6.4387 25.5964C6.71506 25.8672 7.08741 26.017 7.47391 26.0128H24.4943C24.8816 26.0177 25.255 25.8684 25.5324 25.5976C25.8099 25.3268 25.9687 24.9568 25.9741 24.5687V7.44256C25.9686 7.05471 25.8096 6.68492 25.5322 6.41444C25.2547 6.14395 24.8814 5.99489 24.4943 6.00001" fill="#0A66C2"/>
</g>
<defs>
<clipPath id="clip0_104_1344">
<rect width="20" height="20" fill="white" transform="translate(6 6)"/>
</clipPath>
</defs>
</svg>
