<svg width="86" height="24" viewBox="0 0 86 24" fill="none" xmlns="http://www.w3.org/2000/svg">
<path d="M13.5662 17.3752H11.5464L8.23739 10.7308L7.01979 17.3752H5L6.77627 7.67907H8.78173L12.1051 14.3373L13.3227 7.67907H15.3281L13.5662 17.3752Z" fill="#12294B"/>
<path d="M16.9144 8.77491C16.5993 8.77491 16.3462 8.68705 16.1552 8.51135C15.9642 8.33564 15.8687 8.1137 15.8687 7.84552C15.8687 7.47562 16.0119 7.1612 16.2984 6.90227C16.5945 6.63409 16.9383 6.5 17.3298 6.5C17.6354 6.5 17.8837 6.58785 18.0747 6.76356C18.2657 6.93926 18.3612 7.1612 18.3612 7.42938C18.3612 7.79929 18.218 8.11833 17.9315 8.38651C17.645 8.64544 17.3059 8.77491 16.9144 8.77491ZM17.7452 9.69042L16.3414 17.3752H14.3216L15.7254 9.69042H17.7452Z" fill="#12294B"/>
<path d="M28.3843 9.57944C29.2247 9.57944 29.8884 9.79676 30.3754 10.2314C30.8625 10.666 31.106 11.281 31.106 12.0763C31.106 12.3722 31.0821 12.6358 31.0344 12.867L30.2035 17.3752H28.2124L28.9859 13.1305C29.0146 12.9641 29.0289 12.8022 29.0289 12.645C29.0289 12.2011 28.9 11.8636 28.6421 11.6324C28.3938 11.392 28.0357 11.2718 27.5678 11.2718C27.0139 11.2718 26.5459 11.4336 26.164 11.7573C25.782 12.0717 25.5432 12.5294 25.4477 13.1305V13.1166L24.6599 17.3752H22.6687L23.4423 13.1305C23.4709 12.9641 23.4852 12.8069 23.4852 12.6589C23.4852 12.2058 23.3563 11.8636 23.0985 11.6324C22.8406 11.392 22.4777 11.2718 22.0098 11.2718C21.4845 11.2718 21.0309 11.4243 20.6489 11.7295C20.2765 12.0254 20.033 12.4508 19.9184 13.0057L19.1162 17.3752H17.0964L18.5002 9.69042H20.52L20.3481 10.6059C20.6633 10.2915 21.0405 10.0418 21.4798 9.85687C21.9191 9.67192 22.3822 9.57944 22.8693 9.57944C23.49 9.57944 24.02 9.70891 24.4593 9.96784C24.8986 10.2175 25.209 10.5782 25.3904 11.0498C25.7247 10.6059 26.1592 10.2499 26.694 9.98171C27.2383 9.71353 27.8017 9.57944 28.3843 9.57944Z" fill="#12294B"/>
<path d="M34.1176 10.814C34.4327 10.4441 34.8386 10.1435 35.3352 9.91236C35.8318 9.68117 36.3713 9.56557 36.9539 9.56557C37.546 9.56557 38.0664 9.69042 38.5153 9.9401C38.9737 10.1805 39.327 10.5319 39.5753 10.9943C39.8236 11.4567 39.9477 11.9977 39.9477 12.6173C39.9477 12.904 39.9191 13.1999 39.8618 13.505C39.7185 14.2911 39.432 14.9893 39.0023 15.5996C38.5726 16.2007 38.0521 16.6677 37.4409 17.0006C36.8297 17.3335 36.1899 17.5 35.5214 17.5C34.9293 17.5 34.4279 17.389 34.0173 17.1671C33.6066 16.9359 33.3058 16.64 33.1148 16.2793L32.9143 17.3752H30.8945L32.771 7.11034H34.7908L34.1176 10.814ZM37.8133 13.505C37.842 13.3201 37.8563 13.1536 37.8563 13.0057C37.8563 12.4601 37.694 12.0347 37.3693 11.7295C37.0446 11.4243 36.6292 11.2718 36.123 11.2718C35.7601 11.2718 35.402 11.3642 35.0487 11.5492C34.6953 11.7249 34.3897 11.9838 34.1319 12.326C33.874 12.6681 33.7021 13.0704 33.6162 13.5328C33.578 13.7732 33.5589 13.9489 33.5589 14.0599C33.5589 14.6055 33.7212 15.0309 34.0459 15.3361C34.3802 15.6412 34.7956 15.7938 35.2922 15.7938C35.6646 15.7938 36.0275 15.7013 36.3809 15.5164C36.7342 15.3314 37.0398 15.0679 37.2977 14.7257C37.5555 14.3836 37.7274 13.9767 37.8133 13.505Z" fill="#12294B"/>
<path d="M43.2871 7.11034L41.4106 17.3752H39.3908L41.2673 7.11034H43.2871Z" fill="#12294B"/>
<path d="M44.7583 8.77491C44.4432 8.77491 44.1901 8.68705 43.9991 8.51135C43.8081 8.33564 43.7126 8.1137 43.7126 7.84552C43.7126 7.47562 43.8559 7.1612 44.1424 6.90227C44.4384 6.63409 44.7822 6.5 45.1737 6.5C45.4793 6.5 45.7276 6.58785 45.9186 6.76356C46.1096 6.93926 46.2051 7.1612 46.2051 7.42938C46.2051 7.79929 46.0619 8.11833 45.7754 8.38651C45.4889 8.64544 45.1499 8.77491 44.7583 8.77491ZM45.5892 9.69042L44.1853 17.3752H42.1655L43.5694 9.69042H45.5892Z" fill="#12294B"/>
<path d="M48.0488 17.5C47.4662 17.5 46.9362 17.4075 46.4587 17.2226C45.9908 17.0284 45.6184 16.7648 45.3414 16.4319C45.074 16.0897 44.9403 15.7013 44.9403 15.2667C44.9403 15.202 44.9499 15.0956 44.969 14.9477H46.9171C46.8885 15.2713 46.9888 15.5349 47.218 15.7383C47.4471 15.9325 47.7718 16.0296 48.192 16.0296C48.574 16.0296 48.8892 15.9649 49.1375 15.8354C49.3953 15.6967 49.5242 15.4979 49.5242 15.239C49.5242 15.0078 49.4049 14.8228 49.1661 14.6841C48.9369 14.5454 48.5692 14.3882 48.0631 14.2125C47.557 14.0368 47.1368 13.8657 46.8025 13.6992C46.4683 13.5328 46.1818 13.3016 45.943 13.0057C45.7043 12.7098 45.5849 12.3352 45.5849 11.8821C45.5849 11.429 45.7186 11.0267 45.986 10.6753C46.263 10.3239 46.645 10.0511 47.132 9.85687C47.619 9.66267 48.1777 9.56557 48.808 9.56557C49.4096 9.56557 49.9396 9.66267 50.398 9.85687C50.8564 10.0511 51.2098 10.3239 51.4581 10.6753C51.7159 11.0174 51.8448 11.4105 51.8448 11.8544C51.8448 11.9653 51.8401 12.0485 51.8305 12.104H49.9683C49.9969 11.7804 49.9015 11.5214 49.6818 11.3272C49.4622 11.133 49.1422 11.0359 48.722 11.0359C48.3783 11.0359 48.0965 11.1099 47.8769 11.2579C47.6572 11.3966 47.5474 11.5862 47.5474 11.8266C47.5474 12.067 47.6716 12.2659 47.9199 12.4231C48.1682 12.571 48.5501 12.7375 49.0658 12.9224C49.5815 13.1166 49.9922 13.297 50.2978 13.4634C50.6129 13.6206 50.8851 13.8426 51.1143 14.1293C51.3435 14.4067 51.4581 14.7581 51.4581 15.1835C51.4581 15.6551 51.3101 16.0666 51.014 16.418C50.718 16.7694 50.3121 17.0376 49.7964 17.2226C49.2807 17.4075 48.6982 17.5 48.0488 17.5Z" fill="#12294B"/>
<path d="M57.4359 9.57944C58.219 9.57944 58.8397 9.79676 59.2981 10.2314C59.766 10.666 60 11.2764 60 12.0624C60 12.3583 59.9761 12.6265 59.9284 12.867L59.0975 17.3752H57.1064L57.8799 13.1305C57.9086 12.9641 57.9229 12.8022 57.9229 12.645C57.9229 12.1826 57.794 11.8312 57.5361 11.5908C57.2878 11.3504 56.9297 11.2301 56.4618 11.2301C55.927 11.2301 55.4734 11.3873 55.1009 11.7018C54.7285 12.0069 54.4802 12.4462 54.3561 13.0195L53.5539 17.3752H51.5341L53.4106 7.11034H55.4304L54.7858 10.6337C55.1105 10.31 55.502 10.0557 55.9604 9.87074C56.4284 9.67654 56.9202 9.57944 57.4359 9.57944Z" fill="#12294B"/>
<path fill-rule="evenodd" clip-rule="evenodd" d="M67.5172 16.7361H69.1724C69.1724 16.7361 69.2609 13.1015 67.8391 11.5062C66.6876 10.2142 63.8391 9.46745 63.8391 9.46745L63.3793 11.063C63.3793 11.063 65.7822 11.6425 66.6897 12.7472C67.7127 13.9927 67.5172 16.7361 67.5172 16.7361ZM75.5 20.25L68.8966 5.74446L66.9195 6.01039L73 20.25H75.5Z" fill="#12294B"/>
<path d="M62 11.063H63.3793L63.8391 9.46745C63.8391 9.46745 63.9871 7.80996 64.6667 7.0741C65.3181 6.36874 66.9195 6.01039 66.9195 6.01039L68.8966 5.74446V3.75C68.8966 3.75 65.029 4.18385 63.5632 5.74446C62.0634 7.3413 62 11.063 62 11.063Z" fill="#E36B08"/>
<path d="M0.5 1H74.5C80.299 1 85 5.70101 85 11.5V23H0.5V1Z" stroke="#12294B"/>
</svg>
