<svg width="16" height="16" viewBox="0 0 16 16" fill="none" xmlns="http://www.w3.org/2000/svg">
<path d="M6.71967 7.24004C6.75301 7.02004 6.82634 6.82671 6.91967 6.66671C7.11967 6.29337 7.45967 6.10004 7.91967 6.09337C8.21967 6.09337 8.49301 6.22671 8.68634 6.42004C8.87301 6.62671 8.99967 6.91337 8.99967 7.20004H10.1997C10.1863 6.88671 10.1263 6.60004 9.99967 6.33337C9.89967 6.08004 9.74634 5.85337 9.54634 5.66671C8.57967 4.77337 6.78634 4.90004 5.96634 5.91337C5.10634 7.02671 5.08634 8.97337 5.95967 10.0867C6.76634 11.08 8.53301 11.22 9.49301 10.3334C9.69967 10.1667 9.86634 9.96004 9.99967 9.72004C10.1063 9.48004 10.1797 9.22671 10.1863 8.95337H8.99967C8.99967 9.09337 8.95301 9.22004 8.89301 9.33337C8.83301 9.46004 8.75301 9.56004 8.66634 9.64671C8.44634 9.82004 8.18634 9.91337 7.90634 9.91337C7.66634 9.90671 7.46634 9.86004 7.31301 9.76004C7.14018 9.66286 7.0025 9.51352 6.91967 9.33337C6.58634 8.73337 6.63967 7.90004 6.71967 7.24004ZM7.99967 1.33337C4.33301 1.33337 1.33301 4.33337 1.33301 8.00004C1.68634 16.8467 14.333 16.84 14.6663 8.00004C14.6663 4.33337 11.6663 1.33337 7.99967 1.33337ZM7.99967 13.3334C5.05967 13.3334 2.66634 10.94 2.66634 8.00004C2.95967 0.926708 13.0397 0.926708 13.333 8.00004C13.333 10.94 10.9397 13.3334 7.99967 13.3334Z" fill="#FDFDFD"/>
</svg>
