<svg width="16" height="16" viewBox="0 0 16 16" fill="none" xmlns="http://www.w3.org/2000/svg">
<path d="M6.71967 7.23992C6.75301 7.01992 6.82634 6.82659 6.91967 6.66659C7.11967 6.29325 7.45967 6.09992 7.91967 6.09325C8.21967 6.09325 8.49301 6.22659 8.68634 6.41992C8.87301 6.62659 8.99967 6.91325 8.99967 7.19992H10.1997C10.1863 6.88659 10.1263 6.59992 9.99967 6.33325C9.89967 6.07992 9.74634 5.85325 9.54634 5.66659C8.57967 4.77325 6.78634 4.89992 5.96634 5.91325C5.10634 7.02659 5.08634 8.97325 5.95967 10.0866C6.76634 11.0799 8.53301 11.2199 9.49301 10.3333C9.69967 10.1666 9.86634 9.95992 9.99967 9.71992C10.1063 9.47992 10.1797 9.22659 10.1863 8.95325H8.99967C8.99967 9.09325 8.95301 9.21992 8.89301 9.33325C8.83301 9.45992 8.75301 9.55992 8.66634 9.64659C8.44634 9.81992 8.18634 9.91325 7.90634 9.91325C7.66634 9.90659 7.46634 9.85992 7.31301 9.75992C7.14018 9.66274 7.0025 9.5134 6.91967 9.33325C6.58634 8.73325 6.63967 7.89992 6.71967 7.23992ZM7.99967 1.33325C4.33301 1.33325 1.33301 4.33325 1.33301 7.99992C1.68634 16.8466 14.333 16.8399 14.6663 7.99992C14.6663 4.33325 11.6663 1.33325 7.99967 1.33325ZM7.99967 13.3333C5.05967 13.3333 2.66634 10.9399 2.66634 7.99992C2.95967 0.926585 13.0397 0.926585 13.333 7.99992C13.333 10.9399 10.9397 13.3333 7.99967 13.3333Z" fill="#FDFDFD"/>
</svg>
