<svg width="55" height="12" viewBox="0 0 55 12" fill="none" xmlns="http://www.w3.org/2000/svg">
<path d="M8.56619 11.3752H6.5464L3.23739 4.73077L2.01979 11.3752H0L1.77627 1.67907H3.78173L7.10507 8.33733L8.32267 1.67907H10.3281L8.56619 11.3752Z" fill="#C0D9FF"/>
<path d="M11.9144 2.77491C11.5993 2.77491 11.3462 2.68705 11.1552 2.51135C10.9642 2.33564 10.8687 2.1137 10.8687 1.84552C10.8687 1.47562 11.0119 1.1612 11.2984 0.90227C11.5945 0.63409 11.9383 0.5 12.3298 0.5C12.6354 0.5 12.8837 0.587852 13.0747 0.763556C13.2657 0.93926 13.3612 1.1612 13.3612 1.42938C13.3612 1.79929 13.218 2.11833 12.9315 2.38651C12.645 2.64544 12.3059 2.77491 11.9144 2.77491ZM12.7452 3.69042L11.3414 11.3752H9.32162L10.7254 3.69042H12.7452Z" fill="#C0D9FF"/>
<path d="M23.3843 3.57944C24.2247 3.57944 24.8884 3.79676 25.3754 4.2314C25.8625 4.66604 26.106 5.281 26.106 6.07629C26.106 6.37221 26.0821 6.63577 26.0344 6.86696L25.2035 11.3752H23.2124L23.9859 7.13052C24.0146 6.96406 24.0289 6.80223 24.0289 6.64502C24.0289 6.20113 23.9 5.8636 23.6421 5.63241C23.3938 5.39197 23.0357 5.27175 22.5678 5.27175C22.0139 5.27175 21.5459 5.43359 21.164 5.75725C20.782 6.07167 20.5432 6.52942 20.4477 7.13052V7.11665L19.6599 11.3752H17.6687L18.4423 7.13052C18.4709 6.96406 18.4852 6.80685 18.4852 6.65889C18.4852 6.20576 18.3563 5.8636 18.0985 5.63241C17.8406 5.39197 17.4777 5.27175 17.0098 5.27175C16.4845 5.27175 16.0309 5.42434 15.6489 5.72951C15.2765 6.02543 15.033 6.45082 14.9184 7.00567L14.1162 11.3752H12.0964L13.5002 3.69042H15.52L15.3481 4.60593C15.6633 4.29151 16.0405 4.04182 16.4798 3.85687C16.9191 3.67192 17.3822 3.57944 17.8693 3.57944C18.49 3.57944 19.02 3.70891 19.4593 3.96784C19.8986 4.21753 20.209 4.57818 20.3904 5.04981C20.7247 4.60593 21.1592 4.24989 21.694 3.98171C22.2383 3.71353 22.8017 3.57944 23.3843 3.57944Z" fill="#C0D9FF"/>
<path d="M29.1176 4.814C29.4327 4.44409 29.8386 4.14355 30.3352 3.91236C30.8318 3.68117 31.3713 3.56557 31.9539 3.56557C32.546 3.56557 33.0664 3.69042 33.5153 3.9401C33.9737 4.18054 34.327 4.53195 34.5753 4.99433C34.8236 5.4567 34.9477 5.99769 34.9477 6.61728C34.9477 6.90395 34.9191 7.19987 34.8618 7.50504C34.7185 8.29109 34.432 8.98928 34.0023 9.59962C33.5726 10.2007 33.0521 10.6677 32.4409 11.0006C31.8297 11.3335 31.1899 11.5 30.5214 11.5C29.9293 11.5 29.4279 11.389 29.0173 11.1671C28.6066 10.9359 28.3058 10.64 28.1148 10.2793L27.9143 11.3752H25.8945L27.771 1.11034H29.7908L29.1176 4.814ZM32.8133 7.50504C32.842 7.32009 32.8563 7.15364 32.8563 7.00567C32.8563 6.46007 32.694 6.03468 32.3693 5.72951C32.0446 5.42434 31.6292 5.27175 31.123 5.27175C30.7601 5.27175 30.402 5.36423 30.0487 5.54918C29.6953 5.72488 29.3897 5.98382 29.1319 6.32598C28.874 6.66814 28.7021 7.07041 28.6162 7.53279C28.578 7.77322 28.5589 7.94893 28.5589 8.0599C28.5589 8.60551 28.7212 9.0309 29.0459 9.33607C29.3802 9.64124 29.7956 9.79382 30.2922 9.79382C30.6646 9.79382 31.0275 9.70135 31.3809 9.51639C31.7342 9.33144 32.0398 9.06789 32.2977 8.72573C32.5555 8.38356 32.7274 7.97667 32.8133 7.50504Z" fill="#C0D9FF"/>
<path d="M38.2871 1.11034L36.4106 11.3752H34.3908L36.2673 1.11034H38.2871Z" fill="#C0D9FF"/>
<path d="M39.7583 2.77491C39.4432 2.77491 39.1901 2.68705 38.9991 2.51135C38.8081 2.33564 38.7126 2.1137 38.7126 1.84552C38.7126 1.47562 38.8559 1.1612 39.1424 0.90227C39.4384 0.63409 39.7822 0.5 40.1737 0.5C40.4793 0.5 40.7276 0.587852 40.9186 0.763556C41.1096 0.93926 41.2051 1.1612 41.2051 1.42938C41.2051 1.79929 41.0619 2.11833 40.7754 2.38651C40.4889 2.64544 40.1499 2.77491 39.7583 2.77491ZM40.5892 3.69042L39.1853 11.3752H37.1655L38.5694 3.69042H40.5892Z" fill="#C0D9FF"/>
<path d="M43.0488 11.5C42.4662 11.5 41.9362 11.4075 41.4587 11.2226C40.9908 11.0284 40.6184 10.7648 40.3414 10.4319C40.074 10.0897 39.9403 9.70135 39.9403 9.26671C39.9403 9.20198 39.9499 9.09563 39.969 8.94767H41.9171C41.8885 9.27133 41.9888 9.53489 42.218 9.73833C42.4471 9.93253 42.7718 10.0296 43.192 10.0296C43.574 10.0296 43.8892 9.9649 44.1375 9.83543C44.3953 9.69672 44.5242 9.4979 44.5242 9.23897C44.5242 9.00778 44.4049 8.82282 44.1661 8.68411C43.9369 8.5454 43.5692 8.38819 43.0631 8.21248C42.557 8.03678 42.1368 7.8657 41.8025 7.69924C41.4683 7.53279 41.1818 7.3016 40.943 7.00567C40.7043 6.70975 40.5849 6.33522 40.5849 5.88209C40.5849 5.42896 40.7186 5.02669 40.986 4.67528C41.263 4.32388 41.645 4.05107 42.132 3.85687C42.619 3.66267 43.1777 3.56557 43.808 3.56557C44.4096 3.56557 44.9396 3.66267 45.398 3.85687C45.8564 4.05107 46.2098 4.32388 46.4581 4.67528C46.7159 5.01744 46.8448 5.41047 46.8448 5.85435C46.8448 5.96532 46.8401 6.04855 46.8305 6.10403H44.9683C44.9969 5.78037 44.9015 5.52144 44.6818 5.32724C44.4622 5.13304 44.1422 5.03594 43.722 5.03594C43.3783 5.03594 43.0965 5.10992 42.8769 5.25788C42.6572 5.3966 42.5474 5.58617 42.5474 5.82661C42.5474 6.06705 42.6716 6.26587 42.9199 6.42308C43.1682 6.57104 43.5501 6.73749 44.0658 6.92245C44.5815 7.11665 44.9922 7.29697 45.2978 7.46343C45.6129 7.62064 45.8851 7.84258 46.1143 8.12926C46.3435 8.40668 46.4581 8.75809 46.4581 9.18348C46.4581 9.65511 46.3101 10.0666 46.014 10.418C45.718 10.7694 45.3121 11.0376 44.7964 11.2226C44.2807 11.4075 43.6982 11.5 43.0488 11.5Z" fill="#C0D9FF"/>
<path d="M52.4359 3.57944C53.219 3.57944 53.8397 3.79676 54.2981 4.2314C54.766 4.66604 55 5.27638 55 6.06242C55 6.35834 54.9761 6.62652 54.9284 6.86696L54.0975 11.3752H52.1064L52.8799 7.13052C52.9086 6.96406 52.9229 6.80223 52.9229 6.64502C52.9229 6.18264 52.794 5.83123 52.5361 5.59079C52.2878 5.35036 51.9297 5.23014 51.4618 5.23014C50.927 5.23014 50.4734 5.38735 50.1009 5.70177C49.7285 6.00694 49.4802 6.4462 49.3561 7.01955L48.5539 11.3752H46.5341L48.4106 1.11034H50.4304L49.7858 4.63367C50.1105 4.31 50.502 4.0557 50.9604 3.87074C51.4284 3.67654 51.9202 3.57944 52.4359 3.57944Z" fill="#C0D9FF"/>
</svg>
