<svg width="32" height="32" viewBox="0 0 32 32" fill="none" xmlns="http://www.w3.org/2000/svg">
<circle cx="16" cy="16" r="16" fill="#00237B" fill-opacity="0.6"/>
<g clip-path="url(#clip0_104_1243)">
<path d="M23.8996 12.1444C23.9117 12.3198 23.9117 12.4951 23.9117 12.672C23.9117 18.0639 19.8149 24.2824 12.3238 24.2824V24.2792C10.1109 24.2824 7.94396 23.6473 6.08105 22.4498C6.40283 22.4886 6.72622 22.508 7.05041 22.5088C8.88428 22.5104 10.6657 21.8939 12.1085 20.7587C10.3657 20.7255 8.83751 19.587 8.30364 17.925C8.91412 18.0429 9.54315 18.0187 10.1423 17.8547C8.24235 17.47 6.87541 15.7975 6.87541 13.855C6.87541 13.8372 6.87541 13.8202 6.87541 13.8033C7.44154 14.1192 8.07541 14.2945 8.7238 14.3139C6.93428 13.1156 6.38267 10.7304 7.46331 8.86549C9.53105 11.4148 12.5819 12.9646 15.8569 13.1286C15.5286 11.7113 15.977 10.2262 17.0351 9.2299C18.6754 7.68498 21.2552 7.76416 22.7972 9.40686C23.7093 9.22667 24.5835 8.89134 25.3835 8.41623C25.0794 9.3608 24.4431 10.1632 23.5932 10.673C24.4004 10.5777 25.1891 10.3611 25.9319 10.0306C25.3851 10.8516 24.6964 11.5667 23.8996 12.1444Z" fill="#1D9BF0"/>
</g>
<defs>
<clipPath id="clip0_104_1243">
<rect width="20" height="16.4835" fill="white" transform="translate(6 8)"/>
</clipPath>
</defs>
</svg>
