<svg width="32" height="32" viewBox="0 0 32 32" fill="none" xmlns="http://www.w3.org/2000/svg">
<circle cx="16" cy="16" r="16" fill="#00237B" fill-opacity="0.6"/>
<g clip-path="url(#clip0_104_1351)">
<path d="M23.8996 12.1443C23.9117 12.3196 23.9117 12.495 23.9117 12.6719C23.9117 18.0638 19.8149 24.2823 12.3238 24.2823V24.2791C10.1109 24.2823 7.94396 23.6472 6.08105 22.4497C6.40283 22.4885 6.72622 22.5079 7.05041 22.5087C8.88428 22.5103 10.6657 21.8938 12.1085 20.7585C10.3657 20.7254 8.83751 19.5869 8.30364 17.9248C8.91412 18.0428 9.54315 18.0186 10.1423 17.8545C8.24235 17.4699 6.87541 15.7973 6.87541 13.8549C6.87541 13.8371 6.87541 13.8201 6.87541 13.8031C7.44154 14.1191 8.07541 14.2944 8.7238 14.3138C6.93428 13.1155 6.38267 10.7303 7.46331 8.86537C9.53105 11.4147 12.5819 12.9644 15.8569 13.1285C15.5286 11.7112 15.977 10.2261 17.0351 9.22978C18.6754 7.68486 21.2552 7.76404 22.7972 9.40674C23.7093 9.22655 24.5835 8.89122 25.3835 8.41611C25.0794 9.36068 24.4431 10.163 23.5932 10.6729C24.4004 10.5776 25.1891 10.361 25.9319 10.0305C25.3851 10.8515 24.6964 11.5666 23.8996 12.1443Z" fill="#1D9BF0"/>
</g>
<defs>
<clipPath id="clip0_104_1351">
<rect width="20" height="16.4835" fill="white" transform="translate(6 8)"/>
</clipPath>
</defs>
</svg>
