<svg width="14" height="18" viewBox="0 0 14 18" fill="none" xmlns="http://www.w3.org/2000/svg">
<path fill-rule="evenodd" clip-rule="evenodd" d="M5.51724 13.7361H7.17241C7.17241 13.7361 7.26088 10.1015 5.83908 8.50623C4.68756 7.21423 1.83908 6.46745 1.83908 6.46745L1.37931 8.06302C1.37931 8.06302 3.7822 8.6425 4.68966 9.74723C5.7127 10.9927 5.51724 13.7361 5.51724 13.7361ZM13.5 17.25L6.89655 2.74446L4.91954 3.01039L11 17.25H13.5Z" fill="#C0D9FF"/>
<path d="M0 8.06302H1.37931L1.83908 6.46745C1.83908 6.46745 1.98708 4.80996 2.66667 4.0741C3.31809 3.36874 4.91954 3.01039 4.91954 3.01039L6.89655 2.74446V0.75C6.89655 0.75 3.02901 1.18385 1.56322 2.74446C0.0633926 4.3413 0 8.06302 0 8.06302Z" fill="#E36B08"/>
</svg>
