<svg width="36" height="37" viewBox="0 0 36 37" fill="none" xmlns="http://www.w3.org/2000/svg">
<path d="M16.5 31.625C8.43 31.625 1.875 25.07 1.875 17C1.875 8.93 8.43 2.375 16.5 2.375C24.57 2.375 31.125 8.93 31.125 17C31.125 25.07 24.57 31.625 16.5 31.625ZM16.5 4.625C9.675 4.625 4.125 10.175 4.125 17C4.125 23.825 9.675 29.375 16.5 29.375C23.325 29.375 28.875 23.825 28.875 17C28.875 10.175 23.325 4.625 16.5 4.625Z" fill="#585858"/>
<path d="M30.2396 34.685C30.1196 34.685 29.9996 34.67 29.8946 34.655C29.1896 34.565 27.9146 34.085 27.1946 31.94C26.8196 30.815 26.9546 29.69 27.5696 28.835C28.1846 27.98 29.2196 27.5 30.4046 27.5C31.9346 27.5 33.1346 28.085 33.6746 29.12C34.2146 30.155 34.0646 31.475 33.2096 32.75C32.1446 34.355 30.9896 34.685 30.2396 34.685ZM29.3396 31.235C29.5946 32.015 29.9546 32.405 30.1946 32.435C30.4346 32.465 30.8846 32.18 31.3496 31.505C31.7846 30.86 31.8146 30.395 31.7096 30.185C31.6046 29.975 31.1846 29.75 30.4046 29.75C29.9396 29.75 29.5946 29.9 29.3996 30.155C29.2196 30.41 29.1896 30.8 29.3396 31.235Z" fill="#585858"/>
</svg>
